:SAMPLES-PER-SECOND 30
:FULLY-SPECIFIED
:DEGREES
519
root  -45.4762 34.1798 0.468352 -165.432 11.687 179.67
RightUpLeg  -32.8255 -1.00084 1.04393
RightLeg  27.8588 11.7027 5.19834
RightFoot  0.514372 0.00132211 0.150533
RightToes  -41.2841 -0.228822 -0.32226
Spine  1.21253 0.0323034 0.428365
Spine1  2.38455 0.154516 1.25929
HEad  -93.6079 -36.9301 23.1871
LeftShoulder1  -1.94126e-019 -3.10601e-018 -2.51263e-017
LeftArm  -20.039 35.7558 -74.631
LeftForeArm  32.2838 -31.1955 -4.99799
LeftHand  -0.682583 -2.93188 9.74885
RightShoulder  -4.96962e-017 0 -2.36833e-017
RightArm  -43.9127 -23.733 41.5365
RightForeArm  53.7964 61.7091 15.614
RightHand  -0.0975974 -4.99176 -27.2165
LeftUpLeg  -29.1063 -2.7597 6.17102
LeftLeg  29.3344 8.4484 4.03158
LeftFoot  -0.472256 -0.000547188 0.0287224
LeftToes  -24.1477 1.70063e-006 7.6642e-008
520
root  -46.1228 33.6761 0.352225 -165.844 18.1163 -179.598
RightUpLeg  -35.6714 -1.57992 1.35499
RightLeg  32.9517 8.75712 4.86593
RightFoot  -1.67507 -0.0106568 -0.235395
RightToes  -37.7392 -0.200679 -0.301998
Spine  2.12035 -0.0350139 0.53234
Spine1  4.18015 0.0425183 1.41028
HEad  -95.8987 -35.6604 23.4048
LeftShoulder1  -1.94126e-019 -3.10601e-018 -2.51263e-017
LeftArm  -19.0169 37.0258 -76.6867
LeftForeArm  32.2886 -32.6688 -5.36221
LeftHand  -0.717607 -2.92383 10.2448
RightShoulder  -4.96962e-017 0 -2.36833e-017
RightArm  -40.8622 -24.5102 47.1076
RightForeArm  57.4384 67.893 21.3067
RightHand  -0.490843 -3.76527 -34.419
LeftUpLeg  -30.3713 -2.64433 6.3887
LeftLeg  35.716 10.3045 6.38073
LeftFoot  -3.02467 -0.018519 -0.539891
LeftToes  -29.9725 1.70063e-006 7.6642e-008
521
root  -46.8674 33.2936 0.352184 -165.063 22.5545 179.219
RightUpLeg  -40.1777 -4.70833 0.528326
RightLeg  37.1117 3.37517 2.20648
RightFoot  -3.67722 -0.0213764 -0.139643
RightToes  -30.9731 -0.150679 -0.258672
Spine  2.40359 -0.844117 0.13514
Spine1  4.75053 -1.60291 0.70747
HEad  -97.0401 -33.9789 23.363
LeftShoulder1  -1.94126e-019 -3.10601e-018 -2.51263e-017
LeftArm  -15.5877 38.1765 -77.062
LeftForeArm  32.9007 -31.6465 -5.07903
LeftHand  -0.675747 -3.94902 8.66372
RightShoulder  -4.96962e-017 0 -2.36833e-017
RightArm  -36.4498 -26.0068 53.2786
RightForeArm  60.2713 68.8516 22.2509
RightHand  -0.614306 -3.61367 -39.2044
LeftUpLeg  -33.2917 5.5653 2.12187
LeftLeg  39.3632 7.92579 5.64846
LeftFoot  -5.9149 -0.0542329 -0.888177
LeftToes  -19.9186 1.70063e-006 7.6642e-008
522
root  -47.5916 33.003 0.327123 -163.454 25.8308 178.588
RightUpLeg  -44.5787 -8.77489 0.910047
RightLeg  40.0426 1.1326 0.809283
RightFoot  -5.67615 -0.0263776 0.0066551
RightToes  -26.3811 -0.119811 -0.226044
Spine  2.52117 -1.35922 0.0327796
Spine1  4.99906 -2.6781 0.566518
HEad  -98.7957 -33.2165 24.6912
LeftShoulder1  -1.94126e-019 -3.10601e-018 -2.51263e-017
LeftArm  -12.5359 39.4966 -77.1941
LeftForeArm  35.2454 -30.7402 -4.73793
LeftHand  -0.687782 -4.91929 8.03732
RightShoulder  -4.96962e-017 0 -2.36833e-017
RightArm  -32.7457 -29.7963 58.7238
RightForeArm  58.3229 64.9035 17.905
RightHand  -0.576381 -3.34741 -32.1552
LeftUpLeg  -36.309 12.9314 -1.63592
LeftLeg  40.8205 4.70076 3.5449
LeftFoot  -8.41451 -0.0661156 -0.737224
LeftToes  -15.7124 1.70063e-006 7.6642e-008
523
root  -48.0953 32.8465 0.18233 -161.828 29.9734 179.927
RightUpLeg  -46.5278 -10.3605 2.62347
RightLeg  40.59 1.04927 0.762495
RightFoot  -7.43875 -0.0364774 -0.0238184
RightToes  -26.3425 -0.119563 -0.225759
Spine  2.81502 -1.06807 0.44212
Spine1  5.58902 -2.19406 1.4933
HEad  -99.6793 -32.6451 24.4636
LeftShoulder1  -1.94126e-019 -3.10601e-018 -2.51263e-017
LeftArm  -12.5612 41.906 -78.5044
LeftForeArm  36.3288 -29.6736 -4.48472
LeftHand  -0.816093 -4.60861 9.7518
RightShoulder  -4.96962e-017 0 -2.36833e-017
RightArm  -31.0421 -33.6691 63.389
RightForeArm  52.7064 55.3702 11.769
RightHand  -0.493945 -2.03326 -16.8919
LeftUpLeg  -38.2911 14.5803 -1.91289
LeftLeg  43.53 6.43817 5.33909
LeftFoot  -9.92358 -0.129349 -1.32829
LeftToes  -15.658 1.70063e-006 7.6642e-008
524
root  -48.4757 32.8546 0.00726853 -160.43 34.4983 -179.206
RightUpLeg  -47.9302 -11.0957 3.6223
RightLeg  40.6489 0.0206493 -0.00999161
RightFoot  -8.91417 -0.030281 0.155425
RightToes  -26.2798 -0.11916 -0.225297
Spine  3.05832 -0.857435 0.67311
Spine1  6.08087 -1.88244 2.12079
HEad  -100.059 -31.2051 23.0405
LeftShoulder1  -1.94126e-019 -3.10601e-018 -2.51263e-017
LeftArm  -14.9121 46.149 -80.537
LeftForeArm  35.7727 -27.9786 -4.28235
LeftHand  -0.906727 -3.24658 12.4087
RightShoulder  -4.96962e-017 0 -2.36833e-017
RightArm  -28.9449 -35.921 67.248
RightForeArm  48.2216 39.0508 6.08682
RightHand  -0.264721 -1.18396 -7.20551
LeftUpLeg  -39.068 16.1699 -2.57874
LeftLeg  44.4529 8.47678 7.23656
LeftFoot  -10.7735 -0.202127 -1.98178
LeftToes  -14.7013 1.70063e-006 7.6642e-008
525
root  -48.7904 32.996 -0.151544 -159.221 38.8538 -179.132
RightUpLeg  -49.0283 -11.8409 3.88225
RightLeg  39.8794 -2.91419 -2.15417
RightFoot  -9.84136 0.0199232 0.795629
RightToes  -29.1944 -0.138413 -0.246328
Spine  3.23429 -0.713135 0.598965
Spine1  6.44486 -1.71351 2.15539
HEad  -100.564 -30.0138 21.7612
LeftShoulder1  -1.94126e-019 -3.10601e-018 -2.51263e-017
LeftArm  -17.5468 51.0225 -82.0853
LeftForeArm  35.1081 -25.8339 -4.08129
LeftHand  -0.942517 -2.93248 13.3499
RightShoulder  -4.96962e-017 0 -2.36833e-017
RightArm  -30.0007 -38.3475 71.3254
RightForeArm  51.2291 19.3831 1.63716
RightHand  -0.230346 0.601161 -4.54751
LeftUpLeg  -39.2999 18.373 -4.24827
LeftLeg  43.4803 10.0424 8.25877
LeftFoot  -11.1024 -0.250706 -2.41755
LeftToes  -12.3457 1.70063e-006 7.6642e-008
526
root  -49.0701 33.108 -0.255828 -157.733 42.6826 -178.748
RightUpLeg  -50.2032 -12.6593 4.37824
RightLeg  39.6359 -4.25826 -3.10513
RightFoot  -8.6638 0.0272168 0.932059
RightToes  -25.4016 -0.113572 -0.21877
Spine  3.40681 -0.904058 0.740691
Spine1  6.78416 -2.40924 2.78657
HEad  -101.874 -28.394 19.9272
LeftShoulder1  -1.94126e-019 -3.10601e-018 -2.51263e-017
LeftArm  -22.8364 56.2865 -85.0573
LeftForeArm  32.9337 -23.9386 -3.96121
LeftHand  -0.793344 -3.29998 10.8321
RightShoulder  -4.96962e-017 0 -2.36833e-017
RightArm  -40.7553 -43.1883 73.1145
RightForeArm  63.5847 9.86122 1.53208
RightHand  -0.169521 0.158968 -3.58594
LeftUpLeg  -40.0789 19.6617 -5.41348
LeftLeg  43.1573 11.8038 9.55636
LeftFoot  -11.0717 -0.294346 -2.87474
LeftToes  -11.3688 1.70063e-006 7.6642e-008
527
root  -49.2903 33.1658 -0.345736 -155.791 45.7591 -177.769
RightUpLeg  -51.0766 -12.5724 4.45949
RightLeg  40.1583 -3.36331 -2.50731
RightFoot  -1.40174 -0.00487657 0.180967
RightToes  -25.742 -0.115726 -0.22131
Spine  3.75488 -1.17432 1.01768
Spine1  7.40944 -3.04108 3.43811
HEad  -102.807 -25.9647 18.1102
LeftShoulder1  -1.94126e-019 -3.10601e-018 -2.51263e-017
LeftArm  -29.3864 61.6144 -89.2115
LeftForeArm  28.4653 -23.1038 -4.03204
LeftHand  -0.517837 -3.16423 7.26889
RightShoulder  -4.96962e-017 0 -2.36833e-017
RightArm  -48.0112 -49.2153 73.2323
RightForeArm  70.3785 5.27148 0.863538
RightHand  -0.132083 -2.70304 -5.19999
LeftUpLeg  -41.4261 20.6649 -6.01931
LeftLeg  43.6623 13.2286 10.855
LeftFoot  -11.027 -0.330005 -3.25621
LeftToes  -11.4259 1.70063e-006 7.6642e-008
528
root  -49.4879 33.0969 -0.378197 -154.173 48.2089 -177.524
RightUpLeg  -52.3725 -12.5594 3.95789
RightLeg  41.7092 -1.03589 -0.837483
RightFoot  4.28492 0.0226985 -0.0635156
RightToes  -33.4806 -0.168608 -0.275414
Spine  4.03153 -1.66915 1.05059
Spine1  7.9037 -4.01903 3.45496
HEad  -102.983 -23.489 17.3698
LeftShoulder1  -1.94126e-019 -3.10601e-018 -2.51263e-017
LeftArm  -36.4058 66.8044 -93.8088
LeftForeArm  26.0734 -22.6284 -4.08971
LeftHand  -0.306355 -3.03442 4.45753
RightShoulder  -4.96962e-017 0 -2.36833e-017
RightArm  -50.1057 -55.7652 72.0588
RightForeArm  71.4503 3.49567 0.548209
RightHand  -0.143978 -2.79834 -5.92159
LeftUpLeg  -43.5064 22.1646 -7.45547
LeftLeg  44.6717 13.456 11.4244
LeftFoot  -11.5995 -0.376311 -3.54203
LeftToes  -10.6654 1.70063e-006 7.6642e-008
